PathFileType	4	(X/Y/Z)	34_2_16_p0_0-866_filt_butterworth.trc
DataRate	CameraRate	NumFrames	NumMarkers	Units	OrigDataRate	OrigDataStartFrame	OrigNumFrames
59.0	59.0	7	27	m	59.0	541	866
Frame#	Time	RHip			RKnee			RAnkle			RBigToe			RSmallToe			RHeel			LHip			LKnee			LAnkle			LBigToe			LSmallToe			LHeel			Neck			Head			Nose			RShoulder			RElbow			RWrist			RThumb			RIndex			RPinky			LShoulder			LElbow			LWrist			LThumb			LIndex			LPinky			
		X1	Y1	Z1	X2	Y2	Z2	X3	Y3	Z3	X4	Y4	Z4	X5	Y5	Z5	X6	Y6	Z6	X7	Y7	Z7	X8	Y8	Z8	X9	Y9	Z9	X10	Y10	Z10	X11	Y11	Z11	X12	Y12	Z12	X13	Y13	Z13	X14	Y14	Z14	X15	Y15	Z15	X16	Y16	Z16	X17	Y17	Z17	X18	Y18	Z18	X19	Y19	Z19	X20	Y20	Z20	X21	Y21	Z21	X22	Y22	Z22	X23	Y23	Z23	X24	Y24	Z24	X25	Y25	Z25	X26	Y26	Z26	X27	Y27	Z27	
541	9.169491525423728	0.3769875681181828	0.7043435899245539	0.5071976512797152	0.36705067755078624	0.32046319637459725	0.6113589496972107	0.3701924171426954	-0.015152979441989706	0.6462033580565273	0.3428819642098663	-0.05188313847804351	0.5365239355171563	0.4173098256975996	-0.053703638137094445	0.5469963622046771	0.3727133326081297	-0.09236885052703905	0.7041210852675105	0.19857796479546633	0.705296747537236	0.5535115925685072	0.19886331182176828	0.32468100821932355	0.6133114411972334	0.1867029081804445	-0.05719651713463333	0.7171605594601208	0.19068318547403235	-0.03738229059887023	0.5295498268672597	0.1375238761132954	-0.06975865896408884	0.6062620951754129	0.19262547191253884	-0.10220656737766487	0.7573428609086118	0.28289599849325364	1.166075932552101	0.5604289348787861	0.2367286141457337	1.3997528153639673	0.4551293793217525	0.2613706007009773	1.2782971072242169	0.42631186858835035	0.42385055223248147	1.1079488778944238	0.5564181323883828	0.47533289205790885	0.9032445551183386	0.47137909922753163	0.26463070206174344	0.9008636008732475	0.3931557532235753	0.15197417576773253	0.9631198457886333	0.4209751629328369	0.13617546282334472	0.946037163247045	0.3880731783848976	0.14835432055860093	0.8699812522246742	0.3921826782078077	0.1317502060383809	1.091500264377392	0.5900531199605183	0.11210475662941555	0.8933832726412522	0.6213485569294579	0.11148777981818615	0.7341123528681957	0.5136381455664949	0.10231311353147013	0.6267328285955381	0.510858200384984	0.08744033829407688	0.6257288700902692	0.5104822789559942	0.09509528163237488	0.6245668229455467	0.5225778559651915	
542	9.186440677966102	0.3770310898149913	0.703716107229769	0.5073592043589854	0.36662101798046204	0.32036362368664945	0.611216492502381	0.3701699491606439	-0.014952689331781732	0.6463352039865932	0.3428467287280118	-0.05186160482944695	0.5365626264906654	0.41727846530492213	-0.05367820199910467	0.5470191224261285	0.37291310529492133	-0.09273103204913057	0.7048708679403295	0.1986323538866909	0.70487029372601	0.5533849671090978	0.19930790541487592	0.3252522663387505	0.6120417527733412	0.1868001151062047	-0.05789999496105075	0.7174094156865879	0.19063656190425893	-0.037595729617685376	0.5296241932765515	0.13677889786034644	-0.07095599217689601	0.6084419313068159	0.1925259905026847	-0.10265737848750245	0.7581002530634703	0.28090059230147363	1.1659281406720636	0.5604918858718022	0.2373518143321088	1.4002630326105918	0.45537179622754653	0.26089482164436806	1.278744074053116	0.42626312230926056	0.423212399791086	1.1079534414288679	0.5562218090886125	0.476383718055094	0.902348591678368	0.47181685294698017	0.2702365011392397	0.9003555006592155	0.3931042193741849	0.15470343662049457	0.9625357465387527	0.4240464245806117	0.1394945025302533	0.9415315155972745	0.3933355232077108	0.15142888945376104	0.8671164141973404	0.3984006901176196	0.1316323464719067	1.0913521204747827	0.5886609782775472	0.11331867030499204	0.8927875086235194	0.6216617537384037	0.11830882990599309	0.7407932815597599	0.5213536822041067	0.11402648276133848	0.6625038937227402	0.4980409108508418	0.0975432519048483	0.671025601194246	0.5016587230408095	0.10449156013560981	0.660878995155562	0.5216008375952088	
543	9.203389830508474	0.37710846763558903	0.7033048788062215	0.5072412218591705	0.36618780384195543	0.3202615565784932	0.6111103221201837	0.3701541259354373	-0.01481536048174667	0.6464339919707315	0.3428152838113069	-0.051840631801835874	0.5365986944874473	0.4172534794759041	-0.05365318291945234	0.5470334673931739	0.37309259295384267	-0.09301203245689194	0.7056591894756781	0.19872448956744385	0.7042810102128351	0.5532693210314832	0.19972721386258485	0.32581810787462084	0.6106330247233659	0.18688765717504138	-0.05855279304053609	0.7176299969182296	0.19067584692098835	-0.037403658637225216	0.5295911545200604	0.1365594159910719	-0.07131727801739396	0.6091070654876741	0.19256955857780078	-0.10274817429434002	0.7583500653602921	0.2790147766896453	1.1657738559085056	0.5605574019210012	0.23810064666496483	1.4005088958968066	0.4556340613165246	0.260694977680368	1.2790045205114804	0.4260928746221728	0.4223906909491427	1.1079472821950083	0.5559853094147803	0.4775549502677797	0.9014633932497351	0.47179495965793494	0.27648377700131277	0.9000289064654711	0.39188486722646	0.15722007447307781	0.9621596990122246	0.4271314951135018	0.142818609950775	0.9367824585188279	0.4000617166921001	0.1550285614945765	0.8642661126778632	0.4034841590159517	0.13135185117824594	1.0914169406952832	0.5865128256773036	0.11450586575085606	0.8917252087657329	0.6217425286062608	0.12776576519525612	0.7561568778274981	0.525426526231004	0.12811313530732418	0.7062747771569776	0.48172676420235105	0.11043543308510746	0.7237632718613036	0.48954028058590837	0.11907734242345583	0.7063453762174557	0.5113186455468269	
544	9.220338983050848	0.3772145426776854	0.7031105298081284	0.5069733630293043	0.36582263715297847	0.32021444067736266	0.6110541155335681	0.3701442593517135	-0.014737009365409406	0.6464992344522014	0.34278759448913143	-0.05181389540098476	0.5366197864615012	0.4172346950692242	-0.053633210007427434	0.5470440948566102	0.3732268391867007	-0.09319207239964816	0.7064139235666012	0.19890898789058103	0.7036408110174784	0.5532172661235506	0.20011880752664227	0.32634761463340023	0.6093274563818367	0.18696579296225796	-0.05914327616107562	0.7178229710506907	0.1907960844508787	-0.036832987504156665	0.5294577266276284	0.13689654035842588	-0.07078565336353146	0.6081634311670426	0.1927247597738359	-0.10257784876723895	0.7581417194407917	0.2776698221377841	1.1656253612890797	0.5605895497718402	0.23886699779834208	1.4004772962377443	0.4558876867957535	0.2607700701982419	1.2790734619926867	0.4257631039553912	0.4215091242496237	1.107931657392443	0.5557450961684862	0.47898438448713465	0.9007615724337237	0.47211764430195424	0.2830026727776782	0.8998959231119652	0.3892805819963256	0.1593659205856483	0.9619672720658483	0.42923566274698605	0.1460836277487094	0.9320576959361029	0.40699678305629383	0.1594017892388287	0.8621200393287314	0.4053527257561609	0.13098067197920188	1.0914751693064215	0.583953776092096	0.1154361466452972	0.890421016386777	0.6211666567397018	0.1381570357891308	0.7783860979169943	0.5237385709821987	0.1435633823166234	0.7547293984215969	0.46321808640767403	0.12600675307738526	0.7776242345697766	0.47381085118922606	0.1363406381578356	0.7533951721688981	0.49349489498034627	
545	9.23728813559322	0.3773429519597923	0.7030767162115531	0.5067393456423133	0.365595675669581	0.3202442041201827	0.6110465219682908	0.37014052703174927	-0.014717045646718871	0.6465281257137027	0.3427627876301153	-0.05177883827552003	0.5366199648705376	0.417219881243167	-0.053619579047587934	0.5470522774547731	0.3732795869532864	-0.09325857601606785	0.7069629990470392	0.19924385660482888	0.7030608169196653	0.553205526105302	0.20053145252603602	0.3267569990837703	0.6082738153675096	0.1870353852795447	-0.059693160553718455	0.7179958565928539	0.1909719992708755	-0.036010844442683806	0.5292598348280868	0.13765052623866636	-0.06958684524340127	0.6060128299488132	0.19288911828115168	-0.10241029377587782	0.7577616251276527	0.2771451809645572	1.16548373728501	0.56059910526034	0.23955122398107015	1.400325858952363	0.4560993748978676	0.2609057635592351	1.2790074972529175	0.4254776207821632	0.4206897848525437	1.1079107788149631	0.5555314976686931	0.48059784039974307	0.9003439764081677	0.4732709804723302	0.2894618667393014	0.900014688894425	0.3855494639534896	0.16126386934179268	0.9619935701284806	0.4292603404438035	0.14923770426131017	0.9275250719753796	0.41277658769896575	0.16465931297189187	0.8610789896719294	0.40312822569578755	0.13053217822122284	1.0914329468286703	0.5812847533083023	0.1158525508653657	0.8889150142192151	0.6190065748030099	0.1474491960644561	0.8029789373391534	0.5165406899935588	0.15888677142883467	0.8029884465099326	0.44371784057043234	0.14320700700563774	0.825752400312629	0.4551271948308345	0.15331423802670857	0.7945734438233661	0.4720050866394487	
546	9.254237288135592	0.37746828648903863	0.7031108011004785	0.5066928415071421	0.36554165278153133	0.32034456751162765	0.6110695342086729	0.37014298792918	-0.014755272100933373	0.6465191488981681	0.34274258783404943	-0.05173967307435458	0.536603148988341	0.4172060657065657	-0.05360961545859151	0.5470556454907278	0.3732422338112688	-0.09324592344270329	0.7071378144463898	0.1997193760215866	0.7025999370006539	0.5531618567583727	0.2010173260999394	0.32701376561482026	0.6075008059335155	0.18709661168093217	-0.06021677876923836	0.7181522654171006	0.19115002141079546	-0.03519126397049783	0.5290605948803935	0.13863835215517417	-0.06802312823462969	0.603191782589756	0.19297710486173783	-0.10245240658061147	0.7574708471494942	0.2775097574523716	1.1653402600443608	0.5606018324224618	0.2400614615948869	1.4003114749202354	0.45622283850813083	0.26085189038619033	1.2788761546016412	0.42565380289341903	0.42004967841205554	1.107888330254286	0.5553721261511553	0.4821328062923941	0.9001914389528288	0.4751566111299391	0.2955351075971749	0.9004030297853157	0.38122931110534886	0.16342170553578167	0.9621936811169098	0.4265397818501778	0.15226878116481213	0.9231254204583627	0.41682132362162944	0.17073196640139415	0.8611170147575021	0.39718085322435376	0.1299499983125356	1.0914050640404986	0.5787864633178453	0.11559856251119079	0.8871739097438791	0.6142350592141923	0.15433357131863332	0.8249305454870978	0.505726129199371	0.17282852762656414	0.8465281226609302	0.42435280980790707	0.1605245304833903	0.8634688148689557	0.43498722005063956	0.16851664696595153	0.8258970707010261	0.4493566316916353	
547	9.271186440677964	0.37754275510076646	0.7031086458360164	0.5068881232322822	0.36566713321786337	0.3204884385693108	0.6111028247036624	0.37015157213851074	-0.014851916360538689	0.6464725148211032	0.3427324620544572	-0.05170375171848861	0.5365744999641053	0.4171930953194618	-0.05360094231349068	0.5470519303162749	0.37315793323388824	-0.09322182873529763	0.7069393964332243	0.20021670276493927	0.7022426334780396	0.5530298750606668	0.20155443633085537	0.32714103595141103	0.6069510187057622	0.1871503301674457	-0.06070968937352894	0.7182912269582957	0.19127202899242257	-0.03464268082315943	0.528919613253562	0.13967163550146466	-0.06640067906621402	0.6002560446335224	0.1929736051185071	-0.10273766723996088	0.7573296596711425	0.27858315753931306	1.165186277267041	0.5606018141802754	0.24032795061094453	1.4005959847533755	0.45621547527152706	0.2604849986036737	1.278710289714553	0.4266082075154223	0.4196800505397722	1.1078656648285907	0.5552907971791003	0.48331671853755875	0.9001469136546862	0.4773802946939961	0.3008894824795483	0.9010214302999484	0.3769553960401261	0.16651255858851194	0.9624734579275943	0.42095305265943705	0.15530179129647215	0.9187137446711294	0.41880642618944997	0.1774066273485278	0.8618995124201453	0.38861545733021774	0.12921874523693172	1.0915421116056463	0.5768173801637346	0.11473971316849571	0.8855954537384312	0.6066109987581023	0.15906132917419913	0.8413859184713687	0.49317673134914314	0.18518528686618002	0.8833533112280553	0.40624215186473467	0.17692895252364552	0.8900122570523086	0.41476840254530906	0.1821193198358419	0.8478957658663341	0.4263728052709188	
